<?xml version="1.0" encoding="utf-8"?>
<!-- Generator: Adobe Illustrator 16.0.3, SVG Export Plug-In . SVG Version: 6.00 Build 0)  -->
<!DOCTYPE svg PUBLIC "-//W3C//DTD SVG 1.1//EN" "http://www.w3.org/Graphics/SVG/1.1/DTD/svg11.dtd">
<svg version="1.1" id="Camada_1" xmlns="http://www.w3.org/2000/svg" xmlns:xlink="http://www.w3.org/1999/xlink" x="0px" y="0px"
	 width="192px" height="192px" viewBox="0 0 192 192" enable-background="new 0 0 192 192" xml:space="preserve">
<g>
	<g>
		<path fill="#FFFFFF" d="M152.679,142.899l-9.788,9.795c-2.542,2.542-6.675,2.542-9.225,0l-36.668-36.646l-36.645,36.63
			c-2.543,2.558-6.697,2.558-9.248-0.008l-9.81-9.771c-2.535-2.551-2.527-6.668,0-9.226l36.675-36.667L41.326,60.354
			c-2.551-2.565-2.551-6.729-0.016-9.248l9.803-9.78c2.55-2.565,6.697-2.565,9.248-0.007l36.637,36.66l36.668-36.66
			c2.55-2.559,6.683-2.559,9.225,0l9.788,9.771c2.558,2.551,2.564,6.705,0.015,9.248l-36.66,36.668l36.646,36.652
			C155.229,136.231,155.229,140.349,152.679,142.899L152.679,142.899z"/>
	</g>
</g>
</svg>
