<?xml version="1.0" encoding="utf-8"?>
<!-- Generator: Adobe Illustrator 16.0.3, SVG Export Plug-In . SVG Version: 6.00 Build 0)  -->
<!DOCTYPE svg PUBLIC "-//W3C//DTD SVG 1.1//EN" "http://www.w3.org/Graphics/SVG/1.1/DTD/svg11.dtd">
<svg version="1.1" id="Layer_1" xmlns="http://www.w3.org/2000/svg" xmlns:xlink="http://www.w3.org/1999/xlink" x="0px" y="0px"
	 width="60px" height="31.129px" viewBox="0 0 60 31.129" enable-background="new 0 0 60 31.129" xml:space="preserve">
<g>
	<g>
		<g>
			<path fill="#FFFFFF" d="M5.029,23.66c0.206,0.182,0.461,0.363,0.764,0.544c0.305,0.182,0.644,0.346,1.019,0.491
				c0.374,0.146,0.778,0.265,1.212,0.355c0.435,0.09,0.884,0.136,1.349,0.136c0.955,0,1.696-0.167,2.225-0.503
				c0.528-0.335,0.793-0.798,0.793-1.391c0-0.354-0.089-0.657-0.267-0.905c-0.178-0.249-0.422-0.472-0.733-0.668
				c-0.312-0.197-0.679-0.376-1.1-0.539c-0.422-0.162-0.878-0.329-1.367-0.503c-0.979-0.355-1.788-0.708-2.432-1.059
				c-0.643-0.352-1.153-0.734-1.532-1.148c-0.379-0.415-0.645-0.88-0.799-1.396c-0.153-0.517-0.23-1.114-0.23-1.792
				c0-0.718,0.146-1.379,0.438-1.982c0.292-0.604,0.703-1.125,1.23-1.562c0.529-0.438,1.158-0.779,1.888-1.024
				c0.729-0.244,1.528-0.367,2.396-0.367c0.845,0,1.586,0.083,2.225,0.248c0.64,0.165,1.191,0.361,1.657,0.589
				c0.466,0.228,0.85,0.461,1.153,0.701c0.304,0.239,0.547,0.434,0.728,0.583l-1.49,2.281c-0.135-0.134-0.337-0.289-0.61-0.462
				c-0.271-0.173-0.589-0.339-0.951-0.497c-0.363-0.157-0.754-0.29-1.172-0.396s-0.833-0.16-1.243-0.16
				c-0.425,0-0.8,0.047-1.123,0.143c-0.324,0.094-0.595,0.223-0.812,0.384c-0.217,0.162-0.381,0.354-0.49,0.575
				c-0.111,0.221-0.166,0.458-0.166,0.71c0,0.308,0.068,0.572,0.207,0.793c0.138,0.221,0.347,0.422,0.627,0.604
				s0.637,0.359,1.071,0.533c0.434,0.174,0.946,0.367,1.538,0.58c0.884,0.316,1.641,0.646,2.271,0.989
				c0.632,0.344,1.15,0.734,1.556,1.173c0.407,0.438,0.706,0.936,0.899,1.492c0.194,0.557,0.29,1.202,0.29,1.936
				c0,0.663-0.146,1.292-0.438,1.889c-0.292,0.596-0.71,1.119-1.254,1.569c-0.545,0.45-1.207,0.807-1.987,1.072
				c-0.782,0.264-1.662,0.397-2.64,0.397c-0.766,0-1.474-0.069-2.124-0.208c-0.651-0.138-1.236-0.311-1.757-0.521
				C5.325,27.137,4.87,26.908,4.48,26.66c-0.391-0.249-0.713-0.483-0.965-0.704L5.029,23.66z"/>
			<path fill="#FFFFFF" d="M28.612,20.359h-6.153v4.579h7.385v2.888H18.779V10.597h10.945v2.887h-7.266v3.988h6.153V20.359z"/>
			<path fill="#FFFFFF" d="M40.742,24.323H35.76l-0.946,3.503h-3.716l5.207-17.229h3.904l5.206,17.229H41.7L40.742,24.323z
				 M36.54,21.436h3.42l-1.68-6.366h-0.071L36.54,21.436z"/>
			<path fill="#FFFFFF" d="M47.545,27.826V10.597h5.479c1.176,0,2.213,0.199,3.112,0.597s1.652,0.955,2.26,1.668
				s1.065,1.566,1.373,2.556c0.308,0.99,0.461,2.073,0.461,3.248v1.101c0,1.23-0.163,2.343-0.491,3.337
				c-0.326,0.994-0.8,1.84-1.42,2.538c-0.619,0.698-1.375,1.236-2.266,1.615c-0.892,0.379-1.9,0.568-3.029,0.568H47.545z
				 M51.225,13.484v11.454h1.317c0.537,0,1.01-0.063,1.416-0.189c0.408-0.126,0.76-0.304,1.056-0.532
				c0.297-0.229,0.544-0.503,0.742-0.822c0.197-0.319,0.355-0.67,0.474-1.052c0.118-0.382,0.202-0.792,0.249-1.229
				c0.048-0.438,0.071-0.889,0.071-1.354v-1.123c0-0.756-0.063-1.45-0.189-2.08c-0.127-0.631-0.345-1.172-0.652-1.625
				c-0.309-0.453-0.72-0.808-1.233-1.064s-1.158-0.384-1.933-0.384H51.225z"/>
		</g>
	</g>
	<path fill="#FFFFFF" d="M20.075,4.377C17.408,2.286,13.854,1.006,9.949,1C6.044,0.996,2.673,2.424,0,4.508l0.939,0.805
		c2.406-1.94,5.651-3.127,9.223-3.122c3.46,0.006,6.613,1.131,8.989,2.975L20.075,4.377z"/>
	<path fill="#FFFFFF" d="M3.51,7.515c1.738-1.352,4.051-2.175,6.589-2.17c2.458,0.003,4.702,0.782,6.417,2.064l0.95-0.81
		c-1.999-1.523-4.634-2.45-7.521-2.455C7.056,4.14,4.418,5.059,2.414,6.577"/>
	<path fill="#FFFFFF" d="M5.971,9.625c1.098-0.787,2.512-1.259,4.057-1.256c1.498,0.001,2.873,0.451,3.953,1.2l0.989-0.842
		c-1.335-0.962-3.059-1.543-4.94-1.546C8.101,7.177,6.338,7.78,4.987,8.78L5.971,9.625z"/>
</g>
</svg>
