<?xml version="1.0" encoding="utf-8"?>
<!-- Generator: Adobe Illustrator 16.0.3, SVG Export Plug-In . SVG Version: 6.00 Build 0)  -->
<!DOCTYPE svg PUBLIC "-//W3C//DTD SVG 1.1//EN" "http://www.w3.org/Graphics/SVG/1.1/DTD/svg11.dtd">
<svg version="1.1" id="Camada_1" xmlns="http://www.w3.org/2000/svg" xmlns:xlink="http://www.w3.org/1999/xlink" x="0px" y="0px"
	 width="60px" height="48.625px" viewBox="0 0 60 48.625" enable-background="new 0 0 60 48.625" xml:space="preserve">
<g>
	<path fill="#FFFFFF" d="M34.271,22.757c0,2.384-1.936,4.315-4.315,4.315c-2.383,0-4.315-1.931-4.315-4.315
		c0-2.385,1.933-4.315,4.315-4.315C32.336,18.442,34.271,20.373,34.271,22.757z"/>
	<path fill="#FFFFFF" d="M12.654,46.854c-0.125,0.054-0.239,0.106-0.34,0.151c-0.101,0.048-0.234,0.096-0.398,0.15
		c-0.139,0.042-0.289,0.079-0.452,0.11c-0.162,0.029-0.341,0.044-0.537,0.044c-0.368,0-0.704-0.05-1.004-0.152
		c-0.303-0.104-0.564-0.266-0.787-0.484c-0.22-0.213-0.391-0.486-0.514-0.816c-0.122-0.331-0.183-0.716-0.183-1.153
		c0-0.417,0.059-0.787,0.178-1.112c0.118-0.328,0.289-0.604,0.512-0.833c0.216-0.216,0.475-0.384,0.783-0.5
		c0.307-0.115,0.646-0.173,1.02-0.173c0.273,0,0.544,0.034,0.816,0.101c0.273,0.065,0.575,0.182,0.907,0.344v0.796h-0.053
		c-0.187-0.156-0.377-0.333-0.832-0.508c-0.275-0.107-0.571-0.16-0.882-0.16c-0.258,0-0.488,0.042-0.693,0.124
		c-0.208,0.082-0.392,0.21-0.552,0.383c-0.158,0.171-0.279,0.385-0.369,0.645c-0.086,0.257-0.13,0.554-0.13,0.894
		c0,0.355,0.048,0.658,0.144,0.913c0.097,0.255,0.221,0.463,0.375,0.624c0.158,0.167,0.345,0.291,0.557,0.37
		c0.213,0.078,0.438,0.121,0.676,0.121c0.323,0,0.628-0.055,0.914-0.166c0.284-0.111,0.549-0.279,0.797-0.5h0.049V46.854
		L12.654,46.854z"/>
	<path fill="#FFFFFF" d="M23.66,47.299h-0.721l-0.496-1.406h-2.202l-0.499,1.406h-0.687l1.853-5.04h0.9L23.66,47.299L23.66,47.299z
		 M22.23,45.319l-0.887-2.473l-0.895,2.473H22.23L22.23,45.319z"/>
	<path fill="#FFFFFF" d="M33.263,43.535c0,0.222-0.038,0.431-0.117,0.619c-0.079,0.193-0.189,0.358-0.329,0.496
		c-0.176,0.174-0.384,0.303-0.622,0.39c-0.237,0.085-0.543,0.131-0.903,0.131h-0.677v1.878h-0.677v-5.038h1.381
		c0.307,0,0.562,0.025,0.772,0.076c0.214,0.05,0.401,0.131,0.567,0.239c0.191,0.128,0.341,0.29,0.446,0.48
		C33.21,42.998,33.263,43.241,33.263,43.535L33.263,43.535z M32.56,43.551c0-0.174-0.029-0.324-0.092-0.454
		c-0.06-0.127-0.155-0.234-0.278-0.313c-0.112-0.071-0.232-0.12-0.377-0.15c-0.14-0.031-0.314-0.048-0.525-0.048h-0.673v2.016h0.569
		c0.276,0,0.497-0.026,0.667-0.073c0.171-0.05,0.311-0.126,0.416-0.234c0.105-0.106,0.183-0.221,0.228-0.341
		C32.538,43.834,32.56,43.701,32.56,43.551L32.56,43.551z"/>
	<polygon fill="#FFFFFF" points="42.737,47.096 39.39,47.096 39.39,42.057 42.737,42.057 42.737,42.655 40.066,42.655 
		40.066,44.032 42.737,44.032 42.737,44.63 40.066,44.63 40.066,46.501 42.737,46.501 42.737,47.096 	"/>
	<path fill="#FFFFFF" d="M52.209,45.455c0,0.197-0.049,0.391-0.143,0.583c-0.091,0.192-0.221,0.351-0.387,0.485
		c-0.18,0.146-0.391,0.26-0.634,0.34c-0.242,0.081-0.535,0.124-0.879,0.124c-0.362,0-0.693-0.034-0.986-0.104
		c-0.294-0.067-0.589-0.168-0.892-0.301v-0.838h0.048c0.257,0.213,0.55,0.376,0.892,0.492c0.336,0.112,0.65,0.169,0.948,0.169
		c0.418,0,0.742-0.077,0.978-0.234c0.232-0.155,0.348-0.361,0.348-0.621c0-0.225-0.055-0.39-0.165-0.495
		c-0.11-0.107-0.278-0.189-0.502-0.247c-0.173-0.046-0.358-0.082-0.553-0.111c-0.201-0.031-0.413-0.068-0.636-0.113
		c-0.452-0.095-0.783-0.254-1.002-0.486c-0.219-0.228-0.326-0.527-0.326-0.893c0-0.423,0.18-0.77,0.538-1.038
		c0.362-0.271,0.818-0.405,1.371-0.405c0.355,0,0.685,0.034,0.979,0.102c0.303,0.066,0.566,0.151,0.795,0.25v0.791h-0.048
		c-0.194-0.163-0.444-0.296-0.767-0.404c-0.31-0.108-0.634-0.161-0.965-0.161c-0.358,0-0.651,0.073-0.869,0.223
		c-0.222,0.15-0.332,0.342-0.332,0.575c0,0.211,0.056,0.376,0.166,0.496c0.108,0.12,0.3,0.211,0.576,0.271
		c0.145,0.035,0.351,0.071,0.62,0.115c0.267,0.049,0.494,0.092,0.684,0.141c0.377,0.1,0.661,0.249,0.853,0.451
		C52.112,44.815,52.209,45.095,52.209,45.455L52.209,45.455z"/>
	<g>
		<path fill-rule="evenodd" clip-rule="evenodd" fill="#FFFFFF" d="M47.989,0.267c0.456,0,0.831,0.354,0.831,0.79
			c0,0.436-0.375,0.79-0.831,0.79s-0.831-0.354-0.831-0.79C47.158,0.621,47.533,0.267,47.989,0.267L47.989,0.267z"/>
		<path fill="#FFFFFF" d="M47.989,2.114c-0.605,0-1.098-0.474-1.098-1.057C46.892,0.474,47.384,0,47.989,0
			c0.604,0,1.098,0.474,1.098,1.057C49.087,1.64,48.594,2.114,47.989,2.114L47.989,2.114z"/>
	</g>
	<g>
		<path fill="#FFFFFF" d="M26.279,38.206c-4.603,0-8.762-0.759-11.989-2.332c-3.283-1.598-5.414-4.001-6.204-6.974
			c-5.348-1.693-8.475-5.099-8.047-8.922c0.524-4.684,6.525-9.483,18.756-9.649c0.817-0.042,1.604-0.072,2.359-0.091
			c7.732-4.726,17.745-8.427,26.796-9.5l0.075,0.636c-8.612,1.021-18.099,4.438-25.608,8.843c2.792-0.027,5.075,0.126,6.854,0.444
			c15.026-4.683,27.044-0.102,29.988,7.046c2.122,5.15-0.91,10.45-8.11,14.181C43.188,36.014,34.097,38.206,26.279,38.206
			L26.279,38.206z M8.813,29.116c0.813,2.638,2.745,4.715,5.757,6.183c7.777,3.789,21.116,2.743,32.856-2.351
			c-0.067,0.015-0.139,0.028-0.209,0.041c-10.876,2.079-24.246,0.774-37.648-3.677C9.313,29.25,9.062,29.185,8.813,29.116
			L8.813,29.116z M8.621,28.394c0.365,0.11,0.741,0.21,1.125,0.303c13.326,4.426,26.584,5.723,37.352,3.663
			c4.751-0.908,7.526-3.381,7.431-6.615C54.37,20.355,46.39,13.54,29.25,11.309l-1.442-0.188l0.057-0.017
			c-1.778-0.21-3.968-0.286-6.54-0.228c-4.388,2.701-8.013,5.733-10.259,8.792c-2.162,2.944-3.006,5.77-2.511,8.4
			C8.575,28.177,8.597,28.287,8.621,28.394L8.621,28.394z M30.802,10.879c16.5,2.478,24.204,9.355,24.368,14.847
			c0.04,1.368-0.37,2.609-1.175,3.675c4.58-3.325,6.321-7.452,4.674-11.448C55.981,11.429,44.678,7.041,30.802,10.879L30.802,10.879
			z M20.076,10.914c-0.411,0.015-0.831,0.034-1.261,0.056C6.964,11.13,1.167,15.646,0.676,20.049
			c-0.382,3.415,2.416,6.487,7.247,8.122c-0.524-2.806,0.36-5.796,2.627-8.883C12.679,16.389,16.024,13.513,20.076,10.914
			L20.076,10.914z"/>
	</g>
</g>
</svg>
