<?xml version="1.0" encoding="utf-8"?>
<!-- Generator: Adobe Illustrator 16.0.3, SVG Export Plug-In . SVG Version: 6.00 Build 0)  -->
<!DOCTYPE svg PUBLIC "-//W3C//DTD SVG 1.1//EN" "http://www.w3.org/Graphics/SVG/1.1/DTD/svg11.dtd">
<svg version="1.1" id="Camada_1" xmlns="http://www.w3.org/2000/svg" xmlns:xlink="http://www.w3.org/1999/xlink" x="0px" y="0px"
	 width="60px" height="61.35px" viewBox="0 0 60 61.35" enable-background="new 0 0 60 61.35" xml:space="preserve">
<g>
	<polygon fill="#FFFFFF" points="5.499,0 21.719,0 21.719,8.716 5.499,29.078 	"/>
	<path fill="#FFFFFF" d="M22.195,0v9.554L0,47.174h17.798l5.928-9.262V0H22.195z M22.705,34.373l-3.692-16.97l3.692-5.946V34.373z"
		/>
	<path fill-rule="evenodd" clip-rule="evenodd" fill="#FFFFFF" d="M41.677,29.52c0-5.03,0-11.639,0-22.044h18.232v39.699h-32.27
		C41.555,42.741,41.677,29.961,41.677,29.52z"/>
</g>
<path fill="#FFFFFF" d="M57.107,57.696h1.131v2.755H60v0.899h-2.893V57.696z M55.165,57.696h1.134v3.654h-1.134V57.696z
	 M51.236,60.142l1.075-0.068c0.022,0.174,0.07,0.307,0.143,0.399c0.116,0.148,0.281,0.222,0.499,0.222
	c0.161,0,0.285-0.038,0.372-0.114c0.087-0.074,0.13-0.163,0.13-0.263c0-0.095-0.041-0.18-0.124-0.254
	c-0.083-0.075-0.275-0.146-0.579-0.211c-0.494-0.112-0.848-0.259-1.059-0.445c-0.213-0.184-0.318-0.419-0.318-0.705
	c0-0.188,0.054-0.365,0.163-0.531c0.107-0.167,0.271-0.298,0.49-0.395c0.219-0.096,0.519-0.143,0.897-0.143
	c0.47,0,0.825,0.086,1.069,0.26c0.246,0.174,0.391,0.451,0.438,0.827l-1.065,0.064c-0.029-0.165-0.087-0.285-0.178-0.359
	c-0.091-0.075-0.215-0.112-0.374-0.112c-0.133,0-0.231,0.027-0.298,0.083s-0.1,0.124-0.1,0.205c0,0.058,0.027,0.109,0.083,0.157
	c0.052,0.047,0.178,0.091,0.378,0.132c0.494,0.107,0.846,0.215,1.062,0.324c0.213,0.11,0.368,0.244,0.465,0.405
	c0.098,0.162,0.146,0.342,0.146,0.542c0,0.234-0.065,0.449-0.194,0.647c-0.13,0.196-0.31,0.348-0.544,0.449
	c-0.233,0.103-0.524,0.152-0.881,0.152c-0.62,0-1.05-0.117-1.29-0.357S51.268,60.51,51.236,60.142z M49.475,59.957l-0.403-1.313
	l-0.403,1.313H49.475z M49.712,60.749h-1.288l-0.176,0.602h-1.153l1.373-3.654h1.229l1.376,3.654H49.89L49.712,60.749z
	 M44.64,59.176h0.478c0.052,0,0.151-0.017,0.298-0.05c0.076-0.014,0.137-0.054,0.185-0.113c0.047-0.063,0.07-0.133,0.07-0.213
	c0-0.118-0.038-0.209-0.112-0.271c-0.074-0.063-0.215-0.095-0.422-0.095H44.64V59.176z M43.507,61.35v-3.654h1.882
	c0.349,0,0.616,0.029,0.8,0.091c0.185,0.059,0.333,0.17,0.446,0.331c0.114,0.163,0.17,0.36,0.17,0.594
	c0,0.202-0.043,0.376-0.13,0.523c-0.087,0.146-0.205,0.267-0.356,0.359c-0.097,0.058-0.229,0.105-0.396,0.143
	c0.135,0.046,0.233,0.091,0.296,0.137c0.039,0.028,0.099,0.093,0.18,0.19c0.078,0.099,0.132,0.174,0.157,0.228l0.548,1.059h-1.278
	l-0.602-1.117c-0.078-0.143-0.145-0.237-0.207-0.281c-0.078-0.056-0.173-0.085-0.274-0.085H44.64v1.483H43.507z M40.663,60.564
	h0.575c0.194,0,0.333-0.033,0.411-0.102c0.079-0.07,0.12-0.161,0.12-0.279c0-0.107-0.039-0.194-0.118-0.26
	c-0.08-0.064-0.217-0.1-0.415-0.1h-0.573V60.564z M40.663,59.129h0.49c0.176,0,0.298-0.031,0.368-0.092
	c0.068-0.06,0.104-0.148,0.104-0.263c0-0.105-0.035-0.189-0.104-0.248c-0.07-0.062-0.19-0.091-0.362-0.091h-0.496V59.129z
	 M39.523,57.696h2.113c0.352,0,0.623,0.087,0.811,0.263c0.188,0.174,0.284,0.389,0.284,0.647c0,0.215-0.066,0.401-0.201,0.556
	c-0.091,0.104-0.221,0.185-0.395,0.244c0.263,0.063,0.455,0.172,0.579,0.325c0.124,0.155,0.186,0.347,0.186,0.579
	c0,0.189-0.043,0.361-0.132,0.513c-0.089,0.15-0.207,0.271-0.362,0.357c-0.093,0.056-0.235,0.096-0.428,0.12
	c-0.255,0.033-0.422,0.05-0.507,0.05h-1.948V57.696z M34.553,59.53c0,0.37,0.068,0.635,0.204,0.797
	c0.137,0.161,0.325,0.241,0.561,0.241c0.242,0,0.431-0.08,0.563-0.237c0.135-0.157,0.201-0.44,0.201-0.851
	c0-0.343-0.07-0.595-0.209-0.754c-0.139-0.157-0.327-0.238-0.564-0.238c-0.228,0-0.41,0.081-0.548,0.242
	C34.621,58.891,34.553,59.158,34.553,59.53z M33.424,59.526c0-0.598,0.165-1.063,0.496-1.394c0.333-0.333,0.796-0.498,1.39-0.498
	c0.607,0,1.077,0.163,1.408,0.489c0.326,0.327,0.492,0.784,0.492,1.371c0,0.429-0.072,0.778-0.215,1.051
	c-0.146,0.275-0.352,0.486-0.625,0.639c-0.271,0.153-0.61,0.228-1.016,0.228c-0.411,0-0.752-0.063-1.023-0.196
	c-0.269-0.132-0.488-0.339-0.657-0.622C33.506,60.308,33.424,59.952,33.424,59.526z M30.737,58.523v1.998h0.276
	c0.237,0,0.404-0.027,0.505-0.079c0.099-0.052,0.178-0.145,0.234-0.274c0.056-0.131,0.084-0.342,0.084-0.636
	c0-0.387-0.063-0.651-0.189-0.794c-0.127-0.143-0.336-0.215-0.629-0.215H30.737z M29.607,57.696h1.68
	c0.329,0,0.598,0.046,0.801,0.135c0.204,0.091,0.372,0.219,0.504,0.387c0.133,0.167,0.229,0.361,0.29,0.585
	c0.06,0.224,0.089,0.459,0.089,0.709c0,0.391-0.044,0.693-0.133,0.908s-0.213,0.396-0.37,0.54c-0.157,0.146-0.326,0.243-0.509,0.291
	c-0.248,0.066-0.472,0.1-0.672,0.1h-1.68V57.696z M25.932,59.957l-0.404-1.313l-0.402,1.313H25.932z M26.168,60.749h-1.287
	l-0.177,0.602h-1.154l1.374-3.654h1.231l1.374,3.654h-1.181L26.168,60.749z M20.323,57.696h3.432v0.903h-1.152v2.751h-1.129v-2.751
	h-1.151V57.696z M17.802,59.176h0.477c0.051,0,0.15-0.017,0.298-0.05c0.075-0.014,0.136-0.054,0.184-0.113
	c0.047-0.063,0.071-0.133,0.071-0.213c0-0.118-0.038-0.209-0.113-0.271c-0.075-0.063-0.215-0.095-0.421-0.095h-0.497V59.176z
	 M16.668,61.35v-3.654h1.882c0.349,0,0.616,0.029,0.799,0.091c0.185,0.059,0.333,0.17,0.447,0.331
	c0.113,0.163,0.169,0.36,0.169,0.594c0,0.202-0.043,0.376-0.129,0.523c-0.087,0.146-0.207,0.267-0.357,0.359
	c-0.097,0.058-0.229,0.105-0.396,0.143c0.134,0.046,0.232,0.091,0.294,0.137c0.041,0.028,0.101,0.093,0.181,0.19
	c0.079,0.099,0.131,0.174,0.158,0.228l0.546,1.059h-1.276l-0.603-1.117c-0.077-0.143-0.145-0.237-0.205-0.281
	c-0.081-0.056-0.173-0.085-0.277-0.085h-0.1v1.483H16.668z M12.964,57.696h3.025v0.779h-1.894v0.581h1.758v0.747h-1.758v0.72h1.95
	v0.827h-3.081V57.696z M10.136,60.564h0.576c0.195,0,0.332-0.033,0.411-0.102c0.08-0.07,0.12-0.161,0.12-0.279
	c0-0.107-0.039-0.194-0.118-0.26c-0.079-0.064-0.217-0.1-0.415-0.1h-0.574V60.564z M10.136,59.129h0.491
	c0.176,0,0.298-0.031,0.368-0.092c0.069-0.06,0.103-0.148,0.103-0.263c0-0.105-0.034-0.189-0.103-0.248
	c-0.07-0.062-0.19-0.091-0.361-0.091h-0.499V59.129z M8.997,57.696h2.114c0.353,0,0.623,0.087,0.811,0.263
	c0.189,0.174,0.283,0.389,0.283,0.647c0,0.215-0.066,0.401-0.201,0.556c-0.09,0.104-0.221,0.185-0.394,0.244
	c0.262,0.063,0.455,0.172,0.58,0.325c0.124,0.155,0.186,0.347,0.186,0.579c0,0.189-0.044,0.361-0.132,0.513
	c-0.088,0.15-0.208,0.271-0.361,0.357c-0.095,0.056-0.237,0.096-0.429,0.12c-0.254,0.033-0.423,0.05-0.506,0.05H8.997V57.696z
	 M7.036,59.957l-0.404-1.313l-0.402,1.313H7.036z M7.272,60.749H5.985L5.808,61.35H4.654l1.374-3.654h1.231l1.374,3.654H7.452
	L7.272,60.749z M55.476,50.642h3.823v0.984h-2.393v0.734h2.219v0.942h-2.219v0.908h2.461v1.046h-3.892V50.642z M51.908,51.689v2.521
	h0.35c0.298,0,0.511-0.033,0.635-0.1c0.126-0.065,0.226-0.182,0.298-0.345c0.07-0.166,0.105-0.433,0.105-0.803
	c0-0.49-0.078-0.823-0.237-1.005c-0.16-0.18-0.425-0.269-0.795-0.269H51.908z M50.481,50.642h2.12c0.417,0,0.754,0.056,1.013,0.17
	c0.257,0.113,0.47,0.274,0.637,0.488c0.168,0.213,0.29,0.459,0.366,0.74c0.074,0.281,0.111,0.579,0.111,0.893
	c0,0.494-0.056,0.877-0.167,1.15c-0.111,0.271-0.269,0.498-0.468,0.68c-0.198,0.185-0.413,0.309-0.643,0.368
	c-0.313,0.085-0.596,0.126-0.85,0.126h-2.12V50.642z M47.987,53.498l-0.511-1.66l-0.506,1.66H47.987z M48.287,54.497h-1.625
	l-0.224,0.761H44.98l1.735-4.615h1.555l1.735,4.615h-1.493L48.287,54.497z M42.152,51.689v2.521h0.352
	c0.298,0,0.509-0.033,0.635-0.1c0.126-0.065,0.226-0.182,0.298-0.345c0.07-0.166,0.105-0.433,0.105-0.803
	c0-0.49-0.081-0.823-0.24-1.005c-0.159-0.18-0.424-0.269-0.794-0.269H42.152z M40.728,50.642h2.119c0.416,0,0.755,0.056,1.012,0.17
	c0.256,0.113,0.471,0.274,0.639,0.488c0.167,0.213,0.287,0.459,0.364,0.74c0.076,0.281,0.113,0.579,0.113,0.893
	c0,0.494-0.056,0.877-0.17,1.15c-0.111,0.271-0.267,0.498-0.467,0.68c-0.198,0.185-0.412,0.309-0.642,0.368
	c-0.312,0.085-0.597,0.126-0.85,0.126h-2.119V50.642z M38.254,50.642h1.429v4.615h-1.429V50.642z M33.291,53.73l1.358-0.085
	c0.029,0.221,0.089,0.389,0.181,0.505c0.145,0.188,0.355,0.278,0.628,0.278c0.205,0,0.362-0.045,0.472-0.143
	c0.109-0.095,0.163-0.206,0.163-0.331c0-0.119-0.05-0.227-0.155-0.322c-0.105-0.093-0.349-0.184-0.731-0.267
	c-0.625-0.141-1.071-0.327-1.338-0.561c-0.269-0.233-0.403-0.529-0.403-0.892c0-0.237,0.068-0.461,0.207-0.672
	s0.343-0.376,0.62-0.498c0.275-0.12,0.653-0.18,1.135-0.18c0.59,0,1.041,0.109,1.351,0.328c0.309,0.22,0.492,0.569,0.553,1.047
	l-1.345,0.078c-0.037-0.206-0.111-0.357-0.228-0.452c-0.113-0.094-0.271-0.141-0.472-0.141c-0.167,0-0.291,0.032-0.376,0.105
	c-0.083,0.067-0.126,0.154-0.126,0.256c0,0.072,0.035,0.139,0.104,0.196c0.068,0.063,0.228,0.118,0.479,0.172
	c0.622,0.135,1.069,0.271,1.34,0.407c0.27,0.139,0.466,0.309,0.59,0.511c0.122,0.205,0.184,0.433,0.184,0.685
	c0,0.296-0.083,0.569-0.246,0.819s-0.393,0.438-0.687,0.568c-0.294,0.128-0.664,0.192-1.112,0.192c-0.784,0-1.328-0.151-1.63-0.453
	C33.502,54.582,33.332,54.197,33.291,53.73z M29.976,52.511h0.602c0.065,0,0.19-0.021,0.378-0.062
	c0.094-0.019,0.173-0.068,0.232-0.145c0.059-0.079,0.089-0.168,0.089-0.27c0-0.148-0.048-0.263-0.142-0.341
	c-0.095-0.081-0.271-0.122-0.532-0.122h-0.627V52.511z M28.542,55.257v-4.615h2.378c0.44,0,0.778,0.037,1.01,0.114
	c0.233,0.074,0.422,0.215,0.564,0.42c0.143,0.204,0.215,0.452,0.215,0.746c0,0.257-0.056,0.478-0.163,0.664
	c-0.109,0.186-0.261,0.337-0.451,0.452c-0.122,0.073-0.289,0.135-0.501,0.183c0.17,0.056,0.294,0.113,0.373,0.169
	c0.052,0.04,0.126,0.12,0.228,0.242c0.099,0.126,0.165,0.22,0.2,0.287l0.688,1.338h-1.611l-0.763-1.41
	c-0.098-0.182-0.183-0.302-0.259-0.355c-0.103-0.072-0.219-0.107-0.35-0.107h-0.126v1.873H28.542z M23.865,50.642h3.822v0.984
	h-2.393v0.734h2.219v0.942h-2.219v0.908h2.463v1.046h-3.892V50.642z M18.395,50.642h1.492l1.04,3.321l1.023-3.321h1.449
	l-1.713,4.615h-1.545L18.395,50.642z M16.398,50.642h1.429v4.615h-1.429V50.642z M10.979,50.642h1.333l1.738,2.554v-2.554h1.345
	v4.615h-1.345l-1.729-2.532v2.532h-1.341V50.642z M8.601,50.642h1.424v2.753c0,0.272-0.043,0.529-0.128,0.773
	c-0.085,0.239-0.218,0.452-0.399,0.635c-0.182,0.182-0.373,0.308-0.572,0.382c-0.277,0.104-0.61,0.155-0.999,0.155
	c-0.225,0-0.469-0.017-0.735-0.048c-0.265-0.03-0.486-0.093-0.665-0.188c-0.178-0.093-0.342-0.226-0.49-0.399
	c-0.148-0.172-0.249-0.348-0.304-0.531C5.644,53.88,5.6,53.62,5.6,53.395v-2.753h1.424v2.818c0,0.253,0.07,0.449,0.208,0.59
	c0.14,0.143,0.333,0.213,0.582,0.213c0.245,0,0.439-0.07,0.578-0.211c0.139-0.137,0.209-0.337,0.209-0.592V50.642z"/>
<path fill="#FFFFFF" d="M56.427,4.578h0.92c0.311,0,0.529-0.054,0.655-0.164c0.129-0.11,0.192-0.258,0.192-0.444
	c0-0.172-0.062-0.311-0.189-0.415c-0.127-0.105-0.346-0.158-0.662-0.158h-0.916V4.578z M56.427,2.288h0.784
	c0.28,0,0.478-0.049,0.589-0.146c0.109-0.098,0.163-0.237,0.163-0.419c0-0.169-0.054-0.303-0.163-0.397
	c-0.111-0.096-0.304-0.144-0.577-0.144h-0.796V2.288z M54.609,0h3.374c0.563,0,0.995,0.14,1.295,0.418
	c0.3,0.278,0.451,0.623,0.451,1.033c0,0.345-0.107,0.641-0.321,0.888c-0.145,0.164-0.354,0.294-0.628,0.39
	c0.417,0.101,0.726,0.274,0.924,0.519C59.9,3.493,60,3.801,60,4.172c0,0.303-0.07,0.575-0.211,0.816s-0.333,0.432-0.577,0.573
	c-0.15,0.087-0.378,0.15-0.685,0.19c-0.405,0.053-0.674,0.08-0.806,0.08h-3.112V0z M51.48,3.607l-0.646-2.096l-0.641,2.096H51.48z
	 M51.856,4.869h-2.054l-0.28,0.963h-1.841L49.873,0h1.965l2.192,5.832h-1.886L51.856,4.869z M45.556,0h1.799v3.477
	c0,0.345-0.054,0.669-0.161,0.976c-0.107,0.306-0.274,0.575-0.504,0.803c-0.23,0.23-0.47,0.391-0.725,0.484
	c-0.349,0.128-0.769,0.194-1.259,0.194c-0.285,0-0.594-0.02-0.931-0.06c-0.335-0.04-0.614-0.119-0.84-0.236
	s-0.432-0.287-0.618-0.503c-0.188-0.217-0.316-0.441-0.385-0.672c-0.111-0.371-0.167-0.699-0.167-0.986V0h1.799v3.56
	c0,0.319,0.089,0.567,0.263,0.745c0.178,0.179,0.422,0.269,0.734,0.269c0.31,0,0.554-0.088,0.731-0.265
	c0.176-0.175,0.263-0.426,0.263-0.75V0z"/>
</svg>
