<svg width="216" height="48" viewBox="0 0 216 48" fill="none" xmlns="http://www.w3.org/2000/svg">
<path d="M24 48C37.2551 48 48 37.2551 48 24C48 10.7454 37.2551 0 24 0C10.7449 0 0 10.7454 0 24C0 37.2551 10.7449 48 24 48Z" fill="#1765AB"/>
<path d="M19.1742 32.5653C19.3904 32.7608 19.6587 32.9569 19.9785 33.1524C20.2984 33.349 20.6556 33.5263 21.0502 33.6835C21.4438 33.8411 21.8708 33.9684 22.327 34.0664C22.7838 34.164 23.2572 34.2135 23.7473 34.2135C24.7528 34.2135 25.5334 34.0331 26.0902 33.6703C26.647 33.3091 26.9249 32.8083 26.9249 32.1692C26.9249 31.7857 26.8319 31.4598 26.6445 31.1915C26.458 30.9232 26.2004 30.6822 25.8719 30.469C25.544 30.2563 25.1575 30.0622 24.7134 29.8879C24.2692 29.7136 23.7897 29.5327 23.2739 29.3453C22.2441 28.9618 21.3903 28.5803 20.7137 28.2019C20.0367 27.8224 19.4991 27.4091 19.0999 26.9624C18.7007 26.5148 18.4203 26.012 18.2586 25.4542C18.0975 24.8964 18.0161 24.2512 18.0161 23.5181C18.0161 22.743 18.1692 22.0301 18.4769 21.3783C18.7841 20.7265 19.2171 20.1641 19.7729 19.6912C20.3287 19.2183 20.9911 18.8504 21.7601 18.5862C22.5286 18.3219 23.3699 18.1901 24.2834 18.1901C25.1732 18.1901 25.9543 18.279 26.6263 18.4573C27.2998 18.6352 27.8814 18.8474 28.3715 19.094C28.8616 19.3395 29.2663 19.5917 29.5866 19.8509C29.9065 20.1096 30.1616 20.3192 30.3526 20.4804L28.7833 22.9436C28.6413 22.7986 28.4276 22.6323 28.1411 22.4449C27.8556 22.2579 27.5201 22.0791 27.1391 21.9078C26.7561 21.738 26.3449 21.5955 25.9058 21.4803C25.4647 21.3646 25.0287 21.3075 24.5961 21.3075C24.148 21.3075 23.7534 21.3586 23.4128 21.4611C23.0713 21.5632 22.7873 21.7021 22.5594 21.8765C22.33 22.0513 22.1577 22.2579 22.0425 22.4969C21.9253 22.7359 21.8667 22.9916 21.8667 23.2644C21.8667 23.5969 21.94 23.8829 22.086 24.1213C22.231 24.3603 22.4513 24.5766 22.7464 24.7736C23.0415 24.9697 23.4169 25.1612 23.8741 25.3486C24.3304 25.5366 24.8715 25.7453 25.4945 25.9752C26.4247 26.3167 27.2215 26.6729 27.8854 27.0428C28.5508 27.4136 29.097 27.836 29.5245 28.3095C29.9529 28.7824 30.2682 29.32 30.4719 29.9203C30.676 30.521 30.777 31.2178 30.777 32.0115C30.777 32.7275 30.6239 33.4076 30.3162 34.0508C30.0095 34.6945 29.5689 35.2594 28.996 35.7454C28.4225 36.2305 27.7247 36.6175 26.9027 36.9025C26.0796 37.1875 25.1524 37.3309 24.1237 37.3309C23.3163 37.3309 22.5716 37.2567 21.8859 37.1071C21.2008 36.9591 20.5839 36.7711 20.0361 36.5463C19.4869 36.3199 19.0079 36.0723 18.5972 35.8045C18.1849 35.5352 17.8463 35.2821 17.5806 35.0436L19.1742 32.5653Z" fill="white"/>
<path d="M35.0188 11.7418C32.21 9.4833 28.466 8.1014 24.3542 8.09483C20.2429 8.08928 16.6924 9.63285 13.8771 11.8828L14.8669 12.7523C17.4003 10.6575 20.8184 9.37466 24.5791 9.38073C28.224 9.3873 31.5446 10.6019 34.0462 12.5927L35.0188 11.7418Z" fill="white"/>
<path d="M17.5729 15.1297C19.404 13.6705 21.8394 12.7817 24.5122 12.7858C27.1012 12.7898 29.4648 13.6306 31.2701 15.0155L32.2705 14.1409C30.1651 12.4968 27.3902 11.4953 24.349 11.4903C21.3068 11.4857 18.5289 12.4781 16.4199 14.1166" fill="white"/>
<path d="M20.166 17.4085C21.32 16.5586 22.8106 16.0488 24.437 16.0513C26.0149 16.0534 27.463 16.5389 28.6004 17.3463L29.6427 16.4374C28.2366 15.3985 26.4212 14.771 24.439 14.7675C22.4079 14.7649 20.552 15.4157 19.1292 16.496L20.166 17.4085Z" fill="white"/>
<path d="M74.536 32H78.28L73.192 15.392H68.896L63.784 32H67.456L68.392 28.28H73.6L74.536 32ZM69.04 25.664L70.984 18.008L72.928 25.664H69.04ZM84.9293 18.896C81.2093 18.896 78.8573 21.704 78.8573 25.736C78.8573 29.792 81.1853 32.384 84.9773 32.384C86.6573 32.384 88.0013 31.832 89.1533 30.896L87.6653 28.76C86.7293 29.36 86.0813 29.648 85.1453 29.648C83.5373 29.648 82.4573 28.664 82.4573 25.712C82.4573 22.76 83.4653 21.536 85.1693 21.536C86.1053 21.536 86.8493 21.824 87.6653 22.448L89.1533 20.432C87.9533 19.4 86.6333 18.896 84.9293 18.896ZM101.604 25.352C101.604 21.296 99.4679 18.896 95.8679 18.896C92.1479 18.896 90.0839 21.872 90.0839 25.712C90.0839 29.696 92.2199 32.384 96.2999 32.384C98.2919 32.384 99.8759 31.664 101.124 30.656L99.7079 28.736C98.6039 29.504 97.6919 29.84 96.6119 29.84C94.9799 29.84 93.8279 29.12 93.5879 26.672H101.532C101.556 26.312 101.604 25.784 101.604 25.352ZM98.2199 24.536H93.5879C93.7799 22.112 94.5959 21.224 95.9399 21.224C97.5719 21.224 98.2199 22.472 98.2199 24.392V24.536ZM110.694 18.92C109.206 18.92 107.982 19.976 107.382 21.752L107.07 19.28H104.118V32H107.526V25.448C107.982 23.384 108.702 22.232 110.262 22.232C110.694 22.232 111.006 22.304 111.39 22.4L111.966 19.112C111.534 18.992 111.15 18.92 110.694 18.92ZM124.662 19.28H121.158L118.59 29.336L116.07 19.28H112.374L116.526 32H120.582L124.662 19.28ZM131.407 18.896C127.567 18.896 125.287 21.584 125.287 25.64C125.287 29.864 127.591 32.384 131.383 32.384C135.199 32.384 137.479 29.672 137.479 25.64C137.479 21.416 135.199 18.896 131.407 18.896ZM131.407 21.44C133.063 21.44 133.927 22.712 133.927 25.64C133.927 28.544 133.063 29.84 131.383 29.84C129.703 29.84 128.839 28.568 128.839 25.64C128.839 22.736 129.703 21.44 131.407 21.44ZM150.346 15.392H146.002V32H150.754C154.834 32 158.914 30.32 158.914 23.624C158.914 16.76 154.738 15.392 150.346 15.392ZM150.898 17.984C153.298 17.984 155.242 18.872 155.242 23.624C155.242 28.28 153.394 29.408 150.97 29.408H149.53V17.984H150.898ZM163.219 12.728C161.995 12.728 161.155 13.592 161.155 14.72C161.155 15.848 161.995 16.712 163.219 16.712C164.443 16.712 165.307 15.848 165.307 14.72C165.307 13.592 164.443 12.728 163.219 12.728ZM164.947 19.28H161.539V32H164.947V19.28ZM178.849 17.36C177.313 18.224 175.825 18.968 172.897 18.896C169.705 18.896 167.473 20.696 167.473 23.504C167.473 25.136 168.145 26.264 169.729 27.128C168.817 27.704 168.241 28.592 168.241 29.504C168.241 30.848 169.345 32 172.009 32H173.881C175.225 32 175.873 32.528 175.873 33.392C175.873 34.304 175.249 34.952 172.897 34.952C170.473 34.952 169.945 34.424 169.945 33.224H166.897C166.897 35.768 168.169 37.28 172.825 37.28C177.073 37.28 179.305 35.72 179.305 33.152C179.305 31.04 177.457 29.504 174.577 29.504H172.633C171.385 29.504 171.169 29.096 171.169 28.664C171.169 28.328 171.361 28.016 171.649 27.824C172.105 27.944 172.585 27.992 173.137 27.992C176.377 27.992 178.369 26.192 178.369 23.72C178.369 22.112 177.577 21.152 176.017 20.456C177.553 20.456 178.753 20.336 179.689 19.976L178.849 17.36ZM172.969 21.176C174.385 21.176 175.081 21.896 175.081 23.408C175.081 24.968 174.361 25.784 172.993 25.784C171.697 25.784 170.881 24.92 170.881 23.456C170.881 22.064 171.673 21.176 172.969 21.176ZM183.048 12.728C181.824 12.728 180.984 13.592 180.984 14.72C180.984 15.848 181.824 16.712 183.048 16.712C184.272 16.712 185.136 15.848 185.136 14.72C185.136 13.592 184.272 12.728 183.048 12.728ZM184.776 19.28H181.368V32H184.776V19.28ZM194.573 29.216C194.045 29.528 193.589 29.672 193.133 29.672C192.269 29.672 191.861 29.192 191.861 27.944V21.68H194.453L194.789 19.28H191.861V16.088L188.453 16.496V19.28H186.557V21.68H188.453V28.016C188.453 30.848 189.797 32.36 192.437 32.384C193.565 32.384 194.813 32.048 195.749 31.4L194.573 29.216ZM206.978 28.472V23.336C206.978 20.456 205.466 18.896 201.938 18.896C200.498 18.896 198.818 19.208 197.234 19.832L198.002 22.112C199.298 21.68 200.522 21.44 201.362 21.44C202.97 21.44 203.642 21.944 203.642 23.528V24.152H202.178C198.41 24.152 196.322 25.664 196.322 28.448C196.322 30.752 197.906 32.384 200.45 32.384C201.962 32.384 203.354 31.856 204.266 30.488C204.794 31.736 205.754 32.192 207.194 32.336L207.914 30.08C207.29 29.864 206.978 29.504 206.978 28.472ZM201.386 29.936C200.33 29.936 199.754 29.288 199.754 28.16C199.754 26.768 200.666 26.096 202.514 26.096H203.642V28.52C203.114 29.432 202.37 29.936 201.386 29.936ZM213.551 32.384C214.415 32.384 215.183 32.192 215.735 31.952L215.039 29.528C214.847 29.624 214.631 29.672 214.367 29.672C213.887 29.672 213.671 29.384 213.671 28.832V13.832L210.263 14.216V28.928C210.263 31.136 211.487 32.384 213.551 32.384Z" fill="#1765AB"/>
</svg>
