<svg width="190" height="36" viewBox="0 0 190 36" fill="none" xmlns="http://www.w3.org/2000/svg">
<path d="M6.7801 30.1317C7.0569 30.3724 7.4003 30.6138 7.80967 30.8546C8.21904 31.0966 8.67627 31.315 9.18136 31.5085C9.68515 31.7026 10.2316 31.8594 10.8156 31.9801C11.4002 32.1002 12.0062 32.1611 12.6335 32.1611C13.9205 32.1611 14.9197 31.939 15.6324 31.4923C16.345 31.0475 16.7007 30.4309 16.7007 29.6439C16.7007 29.1717 16.5817 28.7704 16.3418 28.44C16.1032 28.1096 15.7733 27.8129 15.353 27.5503C14.9332 27.2884 14.4385 27.0495 13.87 26.8348C13.3016 26.6202 12.6879 26.3975 12.0276 26.1666C10.7095 25.6944 9.6166 25.2247 8.75064 24.7587C7.88404 24.2915 7.19594 23.7825 6.68503 23.2326C6.17413 22.6813 5.8152 22.0623 5.60825 21.3754C5.40195 20.6886 5.29783 19.8941 5.29783 18.9913C5.29783 18.0369 5.49378 17.1591 5.88763 16.3565C6.28084 15.5539 6.83507 14.8614 7.54646 14.2791C8.25785 13.6968 9.10569 13.2438 10.09 12.9184C11.0736 12.593 12.1504 12.4307 13.3197 12.4307C14.4586 12.4307 15.4584 12.5402 16.3185 12.7598C17.1806 12.9788 17.925 13.2401 18.5523 13.5437C19.1796 13.8461 19.6976 14.1565 20.1076 14.4757C20.517 14.7942 20.8436 15.0524 21.088 15.2509L19.0793 18.2839C18.8976 18.1054 18.6241 17.9007 18.2574 17.6699C17.892 17.4397 17.4626 17.2194 16.9749 17.0085C16.4847 16.7995 15.9583 16.624 15.3963 16.4822C14.8317 16.3397 14.2736 16.2694 13.72 16.2694C13.1464 16.2694 12.6413 16.3322 12.2054 16.4585C11.7682 16.5842 11.4048 16.7553 11.1131 16.9699C10.8195 17.1852 10.599 17.4397 10.4515 17.7339C10.3015 18.0282 10.2264 18.343 10.2264 18.679C10.2264 19.0884 10.3202 19.4405 10.5071 19.7342C10.6927 20.0284 10.9747 20.2947 11.3524 20.5374C11.7301 20.7788 12.2106 21.0146 12.7959 21.2454C13.3798 21.4768 14.0725 21.7338 14.8699 22.0169C16.0605 22.4374 17.0803 22.8761 17.9301 23.3315C18.7819 23.7881 19.481 24.3083 20.0281 24.8912C20.5765 25.4736 20.98 26.1355 21.2407 26.8747C21.5019 27.6144 21.6313 28.4724 21.6313 29.4498C21.6313 30.3314 21.4353 31.1688 21.0415 31.9608C20.6489 32.7534 20.085 33.449 19.3516 34.0475C18.6176 34.6448 17.7245 35.1214 16.6723 35.4723C15.6188 35.8232 14.432 35.9998 13.1153 35.9998C12.0819 35.9998 11.1286 35.9084 10.251 35.7242C9.37408 35.5419 8.58444 35.3105 7.8834 35.0336C7.18042 34.7549 6.56733 34.4501 6.04155 34.1203C5.51383 33.7887 5.08053 33.477 4.74036 33.1833L6.7801 30.1317Z" fill="white"/>
<path d="M27.0605 4.49075C23.4655 1.70971 18.6733 0.00810646 13.4103 1.84211e-05C8.14798 -0.00682531 3.6035 1.89386 0 4.66433L1.26692 5.73506C4.50955 3.1556 8.88459 1.57594 13.6981 1.58341C18.3635 1.5915 22.6137 3.08716 25.8156 5.53846L27.0605 4.49075Z" fill="white"/>
<path d="M4.73044 8.66208C7.07414 6.86529 10.1913 5.77092 13.6124 5.77589C16.9262 5.78087 19.9516 6.81614 22.2623 8.52148L23.5428 7.44452C20.8479 5.42002 17.2961 4.1869 13.4036 4.18068C9.50968 4.17508 5.95403 5.397 3.25464 7.41466" fill="white"/>
<path d="M8.04947 11.4688C9.52657 10.4224 11.4344 9.7946 13.5162 9.79771C15.5359 9.8002 17.3893 10.3981 18.8451 11.3923L20.1793 10.273C18.3795 8.99388 16.0558 8.22116 13.5188 8.21681C10.919 8.2137 8.54357 9.01503 6.72241 10.3452L8.04947 11.4688Z" fill="white"/>
<path d="M49.8125 24.9956L48.8765 21.2756H43.6685L42.7325 24.9956H39.0605L44.1725 8.38763H48.4685L53.5565 24.9956H49.8125ZM44.3405 18.6596H48.2045L46.2605 11.0036L44.3405 18.6596Z" fill="white"/>
<path d="M60.323 11.8916C61.171 11.8916 61.931 12.0196 62.603 12.2756C63.291 12.5156 63.939 12.8996 64.547 13.4276L63.059 15.4436C62.643 15.1236 62.235 14.8916 61.835 14.7476C61.451 14.6036 61.027 14.5316 60.563 14.5316C58.755 14.5316 57.851 15.9236 57.851 18.7076C57.851 20.1156 58.083 21.1236 58.547 21.7316C59.011 22.3396 59.675 22.6436 60.539 22.6436C60.987 22.6436 61.395 22.5796 61.763 22.4516C62.131 22.3076 62.563 22.0756 63.059 21.7556L64.547 23.8916C63.331 24.8836 61.939 25.3796 60.371 25.3796C59.123 25.3796 58.035 25.1076 57.107 24.5636C56.195 24.0196 55.491 23.2516 54.995 22.2596C54.499 21.2516 54.251 20.0756 54.251 18.7316C54.251 17.3876 54.499 16.2036 54.995 15.1796C55.491 14.1396 56.195 13.3316 57.107 12.7556C58.035 12.1796 59.107 11.8916 60.323 11.8916Z" fill="white"/>
<path d="M76.7631 18.3476C76.7631 18.5076 76.7391 18.9476 76.6911 19.6676H68.7472C68.8592 20.8196 69.1712 21.6356 69.6832 22.1156C70.1952 22.5956 70.8911 22.8356 71.7711 22.8356C72.3151 22.8356 72.8271 22.7476 73.3071 22.5716C73.7871 22.3956 74.3071 22.1156 74.8671 21.7316L76.2831 23.6516C74.8591 24.8036 73.2511 25.3796 71.4592 25.3796C69.4592 25.3796 67.9232 24.7796 66.8512 23.5796C65.7792 22.3796 65.2432 20.7556 65.2432 18.7076C65.2432 17.4116 65.4672 16.2516 65.9152 15.2276C66.3792 14.1876 67.0432 13.3716 67.9072 12.7796C68.7872 12.1876 69.8272 11.8916 71.0272 11.8916C72.8351 11.8916 74.2431 12.4596 75.2511 13.5956C76.2591 14.7316 76.7631 16.3156 76.7631 18.3476ZM73.3791 17.3876C73.3791 15.2756 72.6191 14.2196 71.0992 14.2196C70.3952 14.2196 69.8432 14.4836 69.4432 15.0116C69.0592 15.5236 68.8272 16.3636 68.7472 17.5316H73.3791V17.3876Z" fill="white"/>
<path d="M85.8059 11.9156C86.1899 11.9156 86.6139 11.9796 87.0779 12.1076L86.5019 15.3956C86.0539 15.2836 85.6779 15.2276 85.3739 15.2276C84.6219 15.2276 84.0379 15.4916 83.6219 16.0196C83.2059 16.5476 82.8779 17.3476 82.6379 18.4196V24.9956H79.2299V12.2756H82.1819L82.4939 14.7476C82.7979 13.8516 83.2379 13.1556 83.8139 12.6596C84.4059 12.1636 85.0699 11.9156 85.8059 11.9156Z" fill="white"/>
<path d="M99.3289 12.2756L95.2489 24.9956H91.1929L87.0409 12.2756H90.7369L93.2569 22.3316L95.8249 12.2756H99.3289Z" fill="white"/>
<path d="M106.144 11.8916C108.048 11.8916 109.536 12.4916 110.608 13.6916C111.68 14.8756 112.216 16.5236 112.216 18.6356C112.216 19.9796 111.968 21.1636 111.472 22.1876C110.992 23.1956 110.288 23.9796 109.36 24.5396C108.448 25.0996 107.368 25.3796 106.12 25.3796C104.216 25.3796 102.72 24.7876 101.632 23.6036C100.56 22.4036 100.024 20.7476 100.024 18.6356C100.024 17.2916 100.264 16.1156 100.744 15.1076C101.24 14.0836 101.944 13.2916 102.856 12.7316C103.784 12.1716 104.88 11.8916 106.144 11.8916ZM106.144 14.4356C105.28 14.4356 104.632 14.7796 104.2 15.4676C103.784 16.1396 103.576 17.1956 103.576 18.6356C103.576 20.0756 103.784 21.1396 104.2 21.8276C104.632 22.4996 105.272 22.8356 106.12 22.8356C106.968 22.8356 107.6 22.4996 108.016 21.8276C108.448 21.1396 108.664 20.0756 108.664 18.6356C108.664 17.1956 108.456 16.1396 108.04 15.4676C107.624 14.7796 106.992 14.4356 106.144 14.4356Z" fill="white"/>
<path d="M125.083 8.38763C127.675 8.38763 129.747 8.97962 131.299 10.1636C132.867 11.3316 133.651 13.4836 133.651 16.6196C133.651 19.6916 132.883 21.8596 131.347 23.1236C129.827 24.3716 127.875 24.9956 125.491 24.9956H120.739V8.38763H125.083ZM124.267 10.9796V22.4036H125.707C127.067 22.4036 128.115 21.9876 128.851 21.1556C129.603 20.3076 129.979 18.7956 129.979 16.6196C129.979 15.1156 129.787 13.9476 129.403 13.1156C129.035 12.2836 128.539 11.7236 127.915 11.4356C127.291 11.1316 126.531 10.9796 125.635 10.9796H124.267Z" fill="white"/>
<path d="M139.685 12.2756V24.9956H136.277V12.2756H139.685ZM137.957 5.72363C138.565 5.72363 139.061 5.91563 139.445 6.29963C139.845 6.66763 140.045 7.13963 140.045 7.71563C140.045 8.29163 139.845 8.77163 139.445 9.15562C139.061 9.52362 138.565 9.70762 137.957 9.70762C137.349 9.70762 136.853 9.52362 136.469 9.15562C136.085 8.77163 135.893 8.29163 135.893 7.71563C135.893 7.13963 136.085 6.66763 136.469 6.29963C136.853 5.91563 137.349 5.72363 137.957 5.72363Z" fill="white"/>
<path d="M154.426 12.9716C153.594 13.2916 152.37 13.4516 150.754 13.4516C151.554 13.8036 152.146 14.2436 152.53 14.7716C152.914 15.2836 153.106 15.9316 153.106 16.7156C153.106 17.5316 152.89 18.2676 152.458 18.9236C152.042 19.5636 151.434 20.0676 150.634 20.4356C149.85 20.8036 148.93 20.9876 147.874 20.9876C147.314 20.9876 146.818 20.9316 146.386 20.8196C146.066 21.0276 145.906 21.3076 145.906 21.6596C145.906 21.9156 146.002 22.1236 146.194 22.2836C146.402 22.4276 146.794 22.4996 147.37 22.4996H149.314C150.258 22.4996 151.082 22.6596 151.786 22.9796C152.506 23.2836 153.058 23.7156 153.442 24.2756C153.842 24.8196 154.042 25.4436 154.042 26.1476C154.042 27.4436 153.482 28.4516 152.362 29.1716C151.258 29.9076 149.658 30.2756 147.562 30.2756C146.058 30.2756 144.866 30.1156 143.986 29.7956C143.122 29.4916 142.514 29.0436 142.162 28.4516C141.81 27.8596 141.634 27.1156 141.634 26.2196H144.682C144.682 26.6356 144.762 26.9636 144.922 27.2036C145.082 27.4596 145.37 27.6436 145.786 27.7556C146.218 27.8836 146.834 27.9476 147.634 27.9476C148.738 27.9476 149.506 27.8116 149.938 27.5396C150.386 27.2676 150.61 26.8836 150.61 26.3876C150.61 25.9396 150.442 25.5956 150.106 25.3556C149.77 25.1156 149.274 24.9956 148.618 24.9956H146.746C145.482 24.9956 144.538 24.7636 143.914 24.2996C143.29 23.8196 142.978 23.2196 142.978 22.4996C142.978 22.0516 143.106 21.6196 143.362 21.2036C143.634 20.7716 144.002 20.4116 144.466 20.1236C143.682 19.6916 143.106 19.1876 142.738 18.6116C142.386 18.0196 142.21 17.3156 142.21 16.4996C142.21 15.5716 142.434 14.7636 142.882 14.0756C143.346 13.3716 143.986 12.8356 144.802 12.4676C145.634 12.0836 146.578 11.8916 147.634 11.8916C148.946 11.9236 150.026 11.8116 150.874 11.5556C151.722 11.2996 152.626 10.8996 153.586 10.3556L154.426 12.9716ZM147.706 14.1716C147.066 14.1716 146.554 14.3796 146.17 14.7956C145.802 15.1956 145.618 15.7476 145.618 16.4516C145.618 17.1716 145.802 17.7396 146.17 18.1556C146.554 18.5716 147.074 18.7796 147.73 18.7796C148.418 18.7796 148.938 18.5796 149.29 18.1796C149.642 17.7796 149.818 17.1876 149.818 16.4036C149.818 14.9156 149.114 14.1716 147.706 14.1716Z" fill="white"/>
<path d="M159.513 12.2756V24.9956H156.105V12.2756H159.513ZM157.785 5.72363C158.393 5.72363 158.889 5.91563 159.273 6.29963C159.673 6.66763 159.873 7.13963 159.873 7.71563C159.873 8.29163 159.673 8.77163 159.273 9.15562C158.889 9.52362 158.393 9.70762 157.785 9.70762C157.177 9.70762 156.681 9.52362 156.297 9.15562C155.913 8.77163 155.721 8.29163 155.721 7.71563C155.721 7.13963 155.913 6.66763 156.297 6.29963C156.681 5.91563 157.177 5.72363 157.785 5.72363Z" fill="white"/>
<path d="M170.486 24.3956C170.022 24.7156 169.494 24.9556 168.902 25.1156C168.326 25.2916 167.75 25.3796 167.174 25.3796C165.862 25.3636 164.87 24.9876 164.198 24.2516C163.526 23.5156 163.19 22.4356 163.19 21.0116V14.6756H161.294V12.2756H163.19V9.49162L166.598 9.08362V12.2756H169.526L169.19 14.6756H166.598V20.9396C166.598 21.5476 166.702 21.9876 166.91 22.2596C167.118 22.5316 167.438 22.6676 167.87 22.6676C168.302 22.6676 168.782 22.5236 169.31 22.2356L170.486 24.3956Z" fill="white"/>
<path d="M181.457 21.4676C181.457 21.9636 181.529 22.3316 181.673 22.5716C181.817 22.7956 182.057 22.9636 182.393 23.0756L181.673 25.3316C180.921 25.2676 180.305 25.0916 179.825 24.8036C179.361 24.5156 179.001 24.0676 178.745 23.4596C177.913 24.7396 176.641 25.3796 174.929 25.3796C173.665 25.3796 172.657 25.0196 171.905 24.2996C171.169 23.5636 170.801 22.6116 170.801 21.4436C170.801 20.0516 171.305 18.9876 172.313 18.2516C173.321 17.5156 174.769 17.1476 176.657 17.1476H178.121V16.5236C178.121 15.7396 177.945 15.1956 177.593 14.8916C177.241 14.5876 176.657 14.4356 175.841 14.4356C174.945 14.4356 173.825 14.6596 172.481 15.1076L171.713 12.8276C173.297 12.2036 174.865 11.8916 176.417 11.8916C178.145 11.8916 179.417 12.2676 180.233 13.0196C181.049 13.7556 181.457 14.8596 181.457 16.3316V21.4676ZM175.865 22.9316C176.825 22.9316 177.577 22.4596 178.121 21.5156V19.0916H176.993C175.153 19.0916 174.233 19.7796 174.233 21.1556C174.233 21.7156 174.369 22.1556 174.641 22.4756C174.929 22.7796 175.337 22.9316 175.865 22.9316Z" fill="white"/>
<path d="M187.796 25.3796C186.756 25.3796 185.948 25.0836 185.372 24.4916C184.796 23.8836 184.508 23.0276 184.508 21.9236V7.21163L187.916 6.82763V21.8276C187.916 22.3876 188.148 22.6676 188.612 22.6676C188.868 22.6676 189.092 22.6196 189.284 22.5236L189.98 24.9476C189.324 25.2356 188.596 25.3796 187.796 25.3796Z" fill="white"/>
</svg>
