<svg width="121" height="121" viewBox="0 0 121 121" fill="none" xmlns="http://www.w3.org/2000/svg">
<path d="M118.499 30.6003C117.393 30.6003 116.499 31.4963 116.499 32.6002V110.599C116.499 113.907 113.807 116.599 110.499 116.599H62.4995V111.997C65.4156 110.977 73.0114 108.599 80.4994 108.599C97.9212 108.599 109.751 112.457 109.869 112.497C110.471 112.697 111.143 112.597 111.669 112.221C112.191 111.845 112.499 111.241 112.499 110.599V22.6004C112.499 21.6625 111.849 20.8504 110.933 20.6483C110.933 20.6483 109.365 20.2984 106.685 19.8062C105.603 19.6063 104.557 20.3263 104.357 21.4103C104.157 22.4982 104.875 23.5403 105.961 23.7402C106.983 23.9281 107.839 24.0941 108.499 24.2263V107.941C103.967 106.753 93.9031 104.599 80.4991 104.599C71.7851 104.599 63.2254 107.461 60.5772 108.431C58.2232 107.392 51.1074 104.599 42.4994 104.599C28.7234 104.599 17.3755 106.871 12.4996 108.026V24.1482C16.4936 23.1662 28.2896 20.6003 42.4994 20.6003C49.7914 20.6003 56.0452 22.8702 58.4993 23.8963V102.6C58.4993 103.32 58.8872 103.986 59.5132 104.34C60.1392 104.696 60.9112 104.685 61.5292 104.314C61.7273 104.196 81.543 92.3596 99.1308 86.4977C99.9488 86.2237 100.499 85.4617 100.499 84.5997V2.60046C100.499 1.94445 100.177 1.3304 99.6368 0.956574C99.1008 0.582515 98.4129 0.4965 97.7949 0.726654C81.7931 6.72847 65.6015 16.8044 65.4393 16.9045C64.5032 17.4904 64.2173 18.7244 64.8032 19.6605C65.3872 20.5965 66.6212 20.8825 67.5592 20.2965C67.7071 20.2026 81.7931 11.4387 96.4988 5.52473V83.1679C82.8468 87.9119 68.593 95.6579 62.4991 99.1257V22.6004C62.4991 21.8425 62.0711 21.1504 61.3931 20.8105C61.049 20.6406 52.8532 16.6005 42.4994 16.6005C24.4276 16.6005 10.5337 20.5105 9.94967 20.6783C9.09163 20.9223 8.49961 21.7084 8.49961 22.6004V110.6C8.49961 111.226 8.79562 111.818 9.29366 112.196C9.64569 112.462 10.0697 112.6 10.4997 112.6C10.6837 112.6 10.8677 112.574 11.0477 112.522C11.1858 112.484 25.0156 108.6 42.4994 108.6C49.8113 108.6 56.0592 110.876 58.4993 111.898V116.6H10.4997C7.19181 116.6 4.4998 113.908 4.4998 110.6V32.6004C4.4998 31.4965 3.6038 30.6005 2.4999 30.6005C1.39601 30.6005 0.5 31.4965 0.5 32.6004V110.6C0.5 116.113 4.98589 120.6 10.5 120.6H110.499C116.013 120.6 120.499 116.114 120.499 110.6V32.6004C120.499 31.4963 119.605 30.6003 118.499 30.6003Z" fill="#1765AB"/>
<path d="M68.7153 57.5084C69.0692 58.2005 69.7733 58.6004 70.5013 58.6004C70.8052 58.6004 71.1172 58.5303 71.4073 58.3824C71.5252 58.3224 83.2973 52.3424 89.1032 50.5084C90.1553 50.1744 90.7391 49.0504 90.4051 47.9985C90.073 46.9464 88.9572 46.3605 87.8952 46.6926C81.7793 48.6266 70.0874 54.5666 69.5914 54.8185C68.6073 55.3184 68.2154 56.5226 68.7153 57.5084Z" fill="#C75000"/>
<path d="M70.5012 34.6004C70.8052 34.6004 71.1171 34.5303 71.4073 34.3824C71.5252 34.3224 83.2973 28.3424 89.1031 26.5084C90.1552 26.1744 90.7391 25.0504 90.4051 23.9985C90.073 22.9464 88.9571 22.3605 87.8952 22.6926C81.7792 24.6266 70.0873 30.5666 69.5914 30.8185C68.6075 31.3184 68.2154 32.5224 68.7153 33.5084C69.0692 34.2003 69.7733 34.6004 70.5012 34.6004Z" fill="#C75000"/>
<path d="M68.7153 45.5084C69.0692 46.2005 69.7733 46.6004 70.5013 46.6004C70.8052 46.6004 71.1172 46.5303 71.4073 46.3824C71.5252 46.3224 83.2973 40.3424 89.1032 38.5084C90.1553 38.1744 90.7391 37.0504 90.4051 35.9985C90.073 34.9464 88.9572 34.3605 87.8952 34.6926C81.7793 36.6266 70.0874 42.5666 69.5914 42.8185C68.6073 43.3184 68.2154 44.5226 68.7153 45.5084Z" fill="#C75000"/>
<path d="M68.7153 69.5084C69.0692 70.2005 69.7733 70.6004 70.5013 70.6004C70.8052 70.6004 71.1172 70.5303 71.4073 70.3824C71.5252 70.3224 83.2973 64.3424 89.1032 62.5084C90.1553 62.1744 90.7391 61.0504 90.4051 59.9985C90.073 58.9464 88.9572 58.3605 87.8952 58.6926C81.7793 60.6266 70.0874 66.5666 69.5914 66.8185C68.6073 67.3184 68.2154 68.5226 68.7153 69.5084Z" fill="#C75000"/>
<path d="M48.9553 37.716C36.6055 34.8179 22.5715 38.51 21.9816 38.668C20.9157 38.9539 20.2817 40.0499 20.5676 41.1179C20.8076 42.0118 21.6155 42.5998 22.4977 42.5998C22.6697 42.5998 22.8436 42.5778 23.0178 42.5319C23.1518 42.4939 36.6636 38.9399 48.0436 41.6098C49.1135 41.8599 50.1956 41.1938 50.4476 40.1178C50.6993 39.0439 50.0313 37.9679 48.9553 37.716Z" fill="#C75000"/>
<path d="M48.9553 49.715C36.6055 46.8191 22.5715 50.5091 21.9816 50.6671C20.9157 50.953 20.2817 52.0492 20.5676 53.117C20.8076 54.0109 21.6155 54.5989 22.4977 54.5989C22.6697 54.5989 22.8436 54.5769 23.0178 54.5309C23.1518 54.493 36.6636 50.9389 48.0436 53.6089C49.1135 53.859 50.1956 53.1929 50.4476 52.1169C50.6993 51.043 50.0313 49.967 48.9553 49.715Z" fill="#C75000"/>
<path d="M68.7153 81.5084C69.0692 82.2005 69.7733 82.6003 70.5013 82.6003C70.8052 82.6003 71.1172 82.5303 71.4073 82.3824C71.5252 82.3224 83.2973 76.3424 89.1032 74.5084C90.1553 74.1744 90.7391 73.0504 90.4051 71.9985C90.073 70.9466 88.9572 70.3605 87.8952 70.6926C81.7793 72.6266 70.0874 78.5666 69.5914 78.8185C68.6073 79.3184 68.2154 80.5226 68.7153 81.5084Z" fill="#C75000"/>
<path d="M48.9553 61.7154C36.6055 58.8195 22.5715 62.5074 21.9816 62.6674C20.9157 62.9534 20.2817 64.0495 20.5676 65.1173C20.8076 66.0112 21.6155 66.6014 22.4977 66.6014C22.6697 66.6014 22.8436 66.5775 23.0178 66.5313C23.1518 66.4933 36.6636 62.9393 48.0436 65.6093C49.1135 65.8594 50.1956 65.1933 50.4476 64.1173C50.6993 63.0434 50.0313 61.9674 48.9553 61.7154Z" fill="#C75000"/>
<path d="M48.9553 85.716C36.6055 82.8179 22.5715 86.51 21.9816 86.668C20.9157 86.9539 20.2817 88.0501 20.5676 89.1179C20.8076 90.0118 21.6155 90.6019 22.4977 90.6019C22.6697 90.6019 22.8436 90.578 23.0178 90.5319C23.1518 90.4939 36.6636 86.9399 48.0436 89.6098C49.1135 89.8578 50.1956 89.1938 50.4476 88.1178C50.6993 87.0439 50.0313 85.9679 48.9553 85.716Z" fill="#C75000"/>
<path d="M48.9553 73.7163C36.6055 70.8183 22.5715 74.5083 21.9816 74.6683C20.9157 74.9543 20.2817 76.0504 20.5676 77.1182C20.8076 78.0121 21.6155 78.6023 22.4977 78.6023C22.6697 78.6023 22.8436 78.5784 23.0178 78.5322C23.1518 78.4942 36.6636 74.9402 48.0436 77.6102C49.1135 77.8603 50.1956 77.1942 50.4476 76.1182C50.6993 75.0443 50.0313 73.9683 48.9553 73.7163Z" fill="#C75000"/>
</svg>
