<svg width="13" height="12" viewBox="0 0 13 12" fill="none" xmlns="http://www.w3.org/2000/svg">
<path d="M1.1875 2.73779H12.5625C12.7812 2.73779 13 2.54639 13 2.30029V1.20654C13 0.987793 12.7812 0.769043 12.5625 0.769043H1.1875C0.941406 0.769043 0.75 0.987793 0.75 1.20654V2.30029C0.75 2.54639 0.941406 2.73779 1.1875 2.73779ZM1.1875 7.11279H12.5625C12.7812 7.11279 13 6.92139 13 6.67529V5.58154C13 5.36279 12.7812 5.14404 12.5625 5.14404H1.1875C0.941406 5.14404 0.75 5.36279 0.75 5.58154V6.67529C0.75 6.92139 0.941406 7.11279 1.1875 7.11279ZM1.1875 11.4878H12.5625C12.7812 11.4878 13 11.2964 13 11.0503V9.95654C13 9.73779 12.7812 9.51904 12.5625 9.51904H1.1875C0.941406 9.51904 0.75 9.73779 0.75 9.95654V11.0503C0.75 11.2964 0.941406 11.4878 1.1875 11.4878Z" fill="white"/>
</svg>
