<svg width="87" height="121" viewBox="0 0 87 121" fill="none" xmlns="http://www.w3.org/2000/svg">
<path d="M1.03995 55.0596C0.112805 57.5326 0.836766 60.3223 2.85123 62.031C6.66781 65.8504 14.517 79.6377 18.4022 89.353C21.0537 95.9794 26.8756 102.483 31.2926 106.774C33.1935 108.645 34.2607 111.202 34.2552 113.87V114.601C34.2552 117.914 36.9406 120.6 40.2538 120.6H72.2435C75.5567 120.6 78.2421 117.914 78.2421 114.601V108.459C78.2238 107.951 78.4169 107.458 78.7757 107.098C86.1553 100.35 86.2395 89.0849 86.2395 88.6089V56.9569C86.3137 52.6754 83.0856 49.0556 78.8242 48.6419C77.2225 48.5366 75.6263 48.9165 74.2434 49.731V46.6219C74.2598 43.7407 72.7167 41.0764 70.2089 39.6569C67.7021 38.2373 64.6232 38.2849 62.1612 39.7823C61.9049 37.085 60.2849 34.7072 57.8696 33.4817C55.4533 32.2562 52.5785 32.3523 50.2501 33.738V30.4266C55.2126 27.6104 58.2695 22.3367 58.2485 16.6311C58.2485 7.79709 51.0867 0.636185 42.2527 0.636185C33.4187 0.636185 26.2578 7.79709 26.2578 16.6311C26.2367 22.3367 29.2937 27.6104 34.2552 30.4266V62.6168C34.312 64.9772 33.9907 67.3303 33.3034 69.5892C33.0892 70.2564 32.5428 70.7653 31.8619 70.9327C31.2212 71.0947 30.5421 70.9163 30.0625 70.4605C28.5011 68.9714 27.1136 67.3093 25.9283 65.5062C22.4586 60.3159 13.728 50.6206 8.26309 50.6206C5.19335 50.5566 2.36981 52.2919 1.03995 55.0596V55.0596ZM30.2565 16.6311C30.2565 10.0056 35.6272 4.6349 42.2527 4.6349C48.8782 4.6349 54.2488 10.0056 54.2488 16.6311C54.2681 20.0523 52.811 23.3151 50.2501 25.5849V16.6311C50.2501 12.2141 46.6697 8.63363 42.2527 8.63363C37.8357 8.63363 34.2552 12.2141 34.2552 16.6311V25.5849C31.6953 23.3151 30.2373 20.0523 30.2565 16.6311ZM22.595 67.7257C23.9505 69.7814 25.5357 71.6759 27.3195 73.3737C28.7903 74.7649 30.8706 75.3076 32.8339 74.8116C34.8346 74.3128 36.4408 72.8246 37.0925 70.8687C37.9199 68.198 38.3125 65.412 38.254 62.6168V16.6311C38.254 14.4226 40.0442 12.6323 42.2527 12.6323C44.4612 12.6323 46.2514 14.4226 46.2514 16.6311V58.6181C46.2514 59.7228 47.1465 60.6179 48.2512 60.6179C49.355 60.6179 50.2501 59.7228 50.2501 58.6181V40.6243C50.2501 38.4158 52.0413 36.6256 54.2488 36.6256C56.4573 36.6256 58.2485 38.4158 58.2485 40.6243V58.6181C58.2485 59.7228 59.1436 60.6179 60.2474 60.6179C61.3521 60.6179 62.2472 59.7228 62.2472 58.6181V46.6219C62.2472 44.4134 64.0374 42.6232 66.2459 42.6232C68.4544 42.6232 70.2446 44.4134 70.2446 46.6219V60.6179C70.2446 61.7217 71.1398 62.6168 72.2435 62.6168C73.3483 62.6168 74.2434 61.7217 74.2434 60.6179V56.6192C74.2406 55.5584 74.6635 54.5407 75.4167 53.7938C76.2413 52.9765 77.3772 52.5527 78.5359 52.6305C80.6959 52.9124 82.2939 54.7795 82.2408 56.9569V88.6089C82.2408 88.7069 82.1392 98.6062 76.0748 104.149C74.8895 105.266 74.2251 106.83 74.2434 108.459V114.601C74.2434 115.706 73.3483 116.601 72.2435 116.601H40.2538C39.1491 116.601 38.254 115.706 38.254 114.601V113.87C38.2567 110.122 36.7511 106.53 34.0777 103.905C30.6903 100.616 24.6323 94.1553 22.1172 87.8658C18.0023 77.5848 9.86112 63.3865 5.67843 59.2038C4.72657 58.2529 4.40807 57.3724 4.73206 56.589C5.45694 55.3333 6.81334 54.5763 8.26309 54.6194C10.9805 54.6194 18.3482 61.3556 22.595 67.7257V67.7257Z" fill="#1765AB"/>
<path d="M44.2523 112.602H46.2512C47.3559 112.602 48.251 111.707 48.251 110.603C48.251 109.499 47.3559 108.604 46.2512 108.604H44.2523C43.1476 108.604 42.2524 109.499 42.2524 110.603C42.2524 111.707 43.1476 112.602 44.2523 112.602Z" fill="#1765AB"/>
<path d="M54.2489 112.602H68.2449C69.3496 112.602 70.2447 111.707 70.2447 110.603C70.2447 109.499 69.3496 108.604 68.2449 108.604H54.2489C53.1451 108.604 52.25 109.499 52.25 110.603C52.25 111.707 53.1451 112.602 54.2489 112.602Z" fill="#1765AB"/>
<path d="M76.2421 86.6101C77.3468 86.6101 78.2419 85.715 78.2419 84.6103V72.6141C78.2419 71.5103 77.3468 70.6152 76.2421 70.6152C75.1383 70.6152 74.2432 71.5103 74.2432 72.6141V84.6103C74.2432 85.715 75.1383 86.6101 76.2421 86.6101Z" fill="#C75000"/>
<path d="M74.2433 98.6062C74.7732 98.6062 75.2821 98.3957 75.6564 98.0204C77.1776 96.6128 78.1029 94.6761 78.242 92.6076C78.2402 91.5276 77.3707 90.6499 76.2907 90.6371C75.1988 90.616 74.29 91.4709 74.2433 92.5619C74.0932 93.5769 73.5935 94.5077 72.8292 95.1932C72.2581 95.7652 72.087 96.6247 72.3963 97.3715C72.7057 98.1193 73.4342 98.6062 74.2433 98.6062Z" fill="#C75000"/>
<path d="M26.258 33.704C27.0561 33.704 27.7773 33.2308 28.094 32.4986C28.4107 31.7664 28.2624 30.9161 27.716 30.3349C20.7885 23.013 20.4123 11.6739 26.8401 3.90897C27.3151 3.36074 27.4561 2.59834 27.2089 1.91648C26.9609 1.23462 26.3633 0.740384 25.6466 0.625063C24.93 0.509742 24.2078 0.791638 23.7585 1.36184C16.0484 10.6791 16.495 24.2833 24.8009 33.0743C25.1789 33.4761 25.7061 33.704 26.258 33.704Z" fill="#C75000"/>
<path d="M60.9143 28.4074C61.3857 28.6491 61.9348 28.6939 62.4391 28.531C62.9443 28.3681 63.3635 28.012 63.6051 27.5398C67.9764 19.028 66.8524 8.72959 60.7477 1.36184C60.2993 0.791638 59.5762 0.509742 58.8596 0.625063C58.1439 0.740384 57.5462 1.23462 57.2982 1.91648C57.0501 2.59834 57.1911 3.36074 57.667 3.90897C62.754 10.0466 63.6903 18.6262 60.0485 25.7166C59.5442 26.6987 59.9322 27.9031 60.9143 28.4074Z" fill="#C75000"/>
</svg>
