<svg width="107" height="120" viewBox="0 0 107 120" fill="none" xmlns="http://www.w3.org/2000/svg">
<path d="M23.9278 48.1995L23.9973 48.6896H103.959C105.116 48.6896 106.053 49.6269 106.053 50.7834V106.956C106.053 114.011 100.314 119.75 93.2597 119.75H65.0963C63.9406 119.75 63.0025 118.813 63.0025 117.656C63.0025 116.5 63.9406 115.562 65.0963 115.562H93.2597C98.0056 115.562 101.866 111.702 101.866 106.956V75.0613V74.8113H101.616H76.9404H76.9359H76.9304H58.5759H58.5704H58.5649H40.2104H40.2049H40.1994H21.8449H21.8404H21.8349H9.82772H9.57772V75.0613V106.956C9.57772 111.702 13.4378 115.562 18.1837 115.562H46.3463C47.5028 115.562 48.44 116.5 48.44 117.656C48.44 118.813 47.5028 119.75 46.3463 119.75H18.1828C11.1294 119.75 5.39022 114.011 5.39022 106.956V51.1157V51.0802L5.38035 51.0462L1.45365 37.4909C0.506332 34.2206 0.893916 30.7669 2.5467 27.7659C4.20044 24.7647 6.9109 22.5906 10.182 21.6433L10.182 21.6433L82.2934 0.753765C82.2934 0.753755 82.2935 0.753748 82.2935 0.753738C83.4485 0.419656 84.639 0.25 85.8339 0.25C91.5054 0.25 96.5672 4.04762 98.142 9.4821L102.161 23.3569L102.401 23.2874L102.161 23.357C102.316 23.8901 102.252 24.4625 101.984 24.9492C101.715 25.4353 101.265 25.7959 100.732 25.9504L23.9278 48.1995ZM62.4152 70.2488L62.1986 70.6238H62.6317H75.5845H75.7289L75.8011 70.4988L85.7583 53.2521L85.9748 52.8771H85.5418H72.5899H72.4455L72.3734 53.0021L62.4152 70.2488ZM44.0497 70.2488L43.8332 70.6238H44.2662H57.2191H57.3634L57.4356 70.4988L67.3929 53.2521L67.6094 52.8771H67.1763H54.2244H54.0801L54.0079 53.0021L44.0497 70.2488ZM25.6851 70.2488L25.4686 70.6238H25.9016H38.8536H38.9979L39.0701 70.4988L49.0283 53.2521L49.2448 52.8771H48.8118H35.8589H35.7146L35.6424 53.0021L25.6851 70.2488ZM17.8706 23.776L17.4547 23.8965L17.767 24.1964L34.4424 40.2127C34.5468 40.3129 34.6391 40.4216 34.7171 40.5354L34.8192 40.6844L34.9928 40.6341L47.487 37.015L47.9029 36.8946L47.5906 36.5946L30.9152 20.5784C30.81 20.4773 30.7186 20.3694 30.6406 20.2557L30.5384 20.1066L30.3649 20.1569L17.8706 23.776ZM82.7668 26.795L83.1828 26.6745L82.8705 26.3746L66.195 10.3583C66.0899 10.2572 65.9984 10.1494 65.9204 10.0356L65.8182 9.8866L65.6447 9.93687L53.1505 13.556L52.7346 13.6764L53.0469 13.9764L69.7223 29.9926L69.723 29.9933C69.8272 30.0926 69.9185 30.201 69.9969 30.3153L70.0991 30.4644L70.2726 30.4141L82.7668 26.795ZM65.2301 31.4841L48.5554 15.4695C48.5554 15.4695 48.5553 15.4694 48.5553 15.4694C48.451 15.3684 48.3588 15.2589 48.2789 15.1444L48.1764 14.9975L48.0043 15.0473L35.5101 18.6664L35.0942 18.7869L35.4065 19.0869L52.0819 35.1031L52.0826 35.1038C52.1868 35.2031 52.2781 35.3115 52.3565 35.4258L52.4587 35.5748L52.6323 35.5245L65.1265 31.9046L65.5424 31.7841L65.2301 31.4841ZM94.1197 10.6476L93.8795 10.7172L94.1197 10.6476C93.0595 6.98981 89.6535 4.4375 85.8339 4.4375C85.0328 4.4375 84.234 4.55167 83.4591 4.77604L83.5286 5.01617L83.459 4.77605L70.7909 8.4464L70.375 8.56689L70.6872 8.86683L87.3617 24.8821C87.4669 24.9832 87.5586 25.0914 87.638 25.2059L87.7403 25.3536L87.913 25.3036L97.3164 22.5799L97.5565 22.5104L97.487 22.2702L94.1197 10.6476ZM6.21486 29.786L6.21484 29.7861C5.10292 31.8064 4.83932 34.1296 5.47596 36.3263L8.84327 47.9489L8.91284 48.189L9.15296 48.1195L29.8466 42.1246L30.2625 42.0041L29.9502 41.7042L13.2748 25.6879C13.1711 25.5882 13.0793 25.4793 12.9995 25.3642L12.8971 25.2164L12.7244 25.2665L11.3475 25.6656C11.3475 25.6656 11.3475 25.6656 11.3475 25.6656C9.15 26.3023 7.32685 27.7665 6.21486 29.786ZM9.82772 52.8771H9.57772V53.1271V70.3738V70.6238H9.82772H20.489H20.6334L20.7055 70.4988L30.6628 53.2521L30.8793 52.8771H30.4463H9.82772ZM80.7806 70.2488L80.5641 70.6238H80.9971H101.616H101.866V70.3738V53.1271V52.8771H101.616H90.9544H90.8101L90.7379 53.0021L80.7806 70.2488Z" fill="#1765AB" stroke="white" stroke-width="0.5"/>
<path d="M70.6312 93.1352L70.6312 93.1353C71.2789 93.509 71.678 94.2 71.678 94.9484C71.678 95.6968 71.2789 96.3879 70.6312 96.7616L70.6312 96.7617L50.04 108.649L50.0399 108.649C49.7159 108.836 49.3545 108.93 48.9932 108.93C48.6319 108.93 48.2705 108.836 47.9464 108.649L47.9462 108.649C47.2985 108.275 46.8994 107.584 46.8994 106.837V83.0603C46.8994 82.3119 47.2985 81.6209 47.9462 81.2471C48.594 80.8734 49.3923 80.8734 50.04 81.2471C50.0401 81.2471 50.0401 81.2471 50.0401 81.2471L70.6312 93.1352ZM51.0869 102.777V103.21L51.4619 102.994L65.0218 95.1649L65.3968 94.9484L65.0218 94.7319L51.4619 86.9033L51.0869 86.6868V87.1198V102.777Z" fill="#C75000" stroke="white" stroke-width="0.5"/>
<path d="M53.627 117.656C53.627 116.503 54.5679 115.562 55.7207 115.562C56.8744 115.562 57.8145 116.503 57.8145 117.656C57.8145 118.809 56.8744 119.75 55.7207 119.75C54.5679 119.75 53.627 118.809 53.627 117.656Z" fill="#C75000" stroke="white" stroke-width="0.5"/>
</svg>
