<svg width="36" height="36" viewBox="0 0 36 36" fill="none" xmlns="http://www.w3.org/2000/svg">
<circle cx="18" cy="18" r="18" fill="white"/>
<mask id="mask0" mask-type="alpha" maskUnits="userSpaceOnUse" x="0" y="0" width="36" height="36">
<circle cx="18" cy="18" r="18" fill="white"/>
</mask>
<g mask="url(#mask0)">
<mask id="path-3-outside-1" maskUnits="userSpaceOnUse" x="4" y="5" width="28" height="30" fill="black">
<rect fill="white" x="4" y="5" width="28" height="30"/>
<path d="M30 33V30.1111C30 28.5787 29.3679 27.1091 28.2426 26.0256C27.1174 24.9421 25.5913 24.3333 24 24.3333H12C10.4087 24.3333 8.88258 24.9421 7.75736 26.0256C6.63214 27.1091 6 28.5787 6 30.1111V33"/>
<path d="M17.9999 18.5556C21.3136 18.5556 23.9999 15.9688 23.9999 12.7778C23.9999 9.5868 21.3136 7 17.9999 7C14.6862 7 11.9999 9.5868 11.9999 12.7778C11.9999 15.9688 14.6862 18.5556 17.9999 18.5556Z"/>
</mask>
<path d="M30 33V30.1111C30 28.5787 29.3679 27.1091 28.2426 26.0256C27.1174 24.9421 25.5913 24.3333 24 24.3333H12C10.4087 24.3333 8.88258 24.9421 7.75736 26.0256C6.63214 27.1091 6 28.5787 6 30.1111V33" fill="white"/>
<path d="M17.9999 18.5556C21.3136 18.5556 23.9999 15.9688 23.9999 12.7778C23.9999 9.5868 21.3136 7 17.9999 7C14.6862 7 11.9999 9.5868 11.9999 12.7778C11.9999 15.9688 14.6862 18.5556 17.9999 18.5556Z" fill="white"/>
<path d="M28 33C28 34.1046 28.8954 35 30 35C31.1046 35 32 34.1046 32 33H28ZM24 24.3333V22.3333V24.3333ZM12 24.3333L12 22.3333L12 24.3333ZM6 30.1111H4H6ZM4 33C4 34.1046 4.89543 35 6 35C7.10457 35 8 34.1046 8 33H4ZM32 33V30.1111H28V33H32ZM32 30.1111C32 28.0234 31.1381 26.0373 29.6299 24.585L26.8554 27.4662C27.5976 28.181 28 29.1341 28 30.1111H32ZM29.6299 24.585C28.1243 23.1351 26.0979 22.3333 24 22.3333L24 26.3333C25.0847 26.3333 26.1105 26.749 26.8554 27.4662L29.6299 24.585ZM24 22.3333H12V26.3333H24V22.3333ZM12 22.3333C9.90211 22.3333 7.87566 23.1351 6.37008 24.585L9.14464 27.4662C9.88949 26.749 10.9153 26.3333 12 26.3333L12 22.3333ZM6.37008 24.585C4.86192 26.0373 4 28.0234 4 30.1111H8C8 29.1341 8.40236 28.181 9.14464 27.4662L6.37008 24.585ZM4 30.1111V33H8V30.1111H4ZM21.9999 12.7778C21.9999 14.7937 20.2809 16.5556 17.9999 16.5556V20.5556C22.3464 20.5556 25.9999 17.1438 25.9999 12.7778H21.9999ZM17.9999 16.5556C15.719 16.5556 13.9999 14.7937 13.9999 12.7778H9.99992C9.99992 17.1438 13.6535 20.5556 17.9999 20.5556V16.5556ZM13.9999 12.7778C13.9999 10.7618 15.719 9 17.9999 9V5C13.6535 5 9.99992 8.41176 9.99992 12.7778H13.9999ZM17.9999 9C20.2809 9 21.9999 10.7618 21.9999 12.7778H25.9999C25.9999 8.41176 22.3464 5 17.9999 5V9Z" fill="#1765AB" mask="url(#path-3-outside-1)"/>
</g>
</svg>
