<?xml version="1.0" encoding="utf-8"?>
<!-- Generator: Adobe Illustrator 16.0.3, SVG Export Plug-In . SVG Version: 6.00 Build 0)  -->
<!DOCTYPE svg PUBLIC "-//W3C//DTD SVG 1.1//EN" "http://www.w3.org/Graphics/SVG/1.1/DTD/svg11.dtd">
<svg version="1.1" id="Camada_1" xmlns="http://www.w3.org/2000/svg" xmlns:xlink="http://www.w3.org/1999/xlink" x="0px" y="0px"
	 width="192px" height="192px" viewBox="0 0 192 192" enable-background="new 0 0 192 192" xml:space="preserve">
<path fill="#FFFFFF" d="M140.578,80.365c0,8.145-33.285,45.457-41.422,45.457c-7.943,0-41.857-37.313-41.857-44.609
	c0-4.793,2.347-5.955,25.859-5.955c0-49.838,2.415-50.408,15.998-50.408c13.417,0,15.779,0,15.779,50.408
	C138.224,75.258,140.578,76.18,140.578,80.365z"/>
<path fill="#FFFFFF" d="M146.148,155.26c0,8.363-0.186,8.74-8.548,8.74H60.283c-8.37,0-8.135-0.377-8.135-8.74v-3.473
	c0-8.369-0.235-8.787,8.135-8.787h77.317c8.362,0,8.548,0.418,8.548,8.787V155.26z"/>
</svg>
