<?xml version="1.0" encoding="utf-8"?>
<!-- Generator: Adobe Illustrator 16.0.3, SVG Export Plug-In . SVG Version: 6.00 Build 0)  -->
<!DOCTYPE svg PUBLIC "-//W3C//DTD SVG 1.1//EN" "http://www.w3.org/Graphics/SVG/1.1/DTD/svg11.dtd">
<svg version="1.1" id="Layer_1" xmlns="http://www.w3.org/2000/svg" xmlns:xlink="http://www.w3.org/1999/xlink" x="0px" y="0px"
	 width="60px" height="31.129px" viewBox="0 0 60 31.129" enable-background="new 0 0 60 31.129" xml:space="preserve">
<rect x="812.785" y="-165.958" width="841.89" height="595.275"/>
<g>
	<g>
		<g>
			<g>
				<path fill="#F7F7F7" d="M36,17.269V20.9l13.107-2.169c1.195,1.284,6.554,0.664,6.554-2.126c0-3.498-11.159,1.107-11.159-6.553
					c0-0.531,0.045-1.063,0.133-1.594L36,9.874v3.277l5.713-0.886v4.118L36,17.269z"/>
			</g>
		</g>
	</g>
	<g>
		<g>
			<g>
				<polygon fill="#F7F7F7" points="22.185,15.498 27.941,14.568 27.941,18.686 22.185,19.616 22.185,27.365 31.174,25.771 
					31.174,10.716 22.185,12.221 				"/>
			</g>
		</g>
	</g>
	<g>
		<g>
			<g>
				<path fill="#F7F7F7" d="M12,28.915v0.221l5.313-0.93V18.154h-0.265C16.959,24.266,15.321,27.409,12,28.915z"/>
			</g>
		</g>
	</g>
	<g>
		<g>
			<g>
				<path fill="#F7F7F7" d="M55.616,7.66c-0.266-2.657-6.332-1.55-6.332,0.93c0,2.967,8.016,0.089,10.495,3.941H60V6.996h-0.221
					L55.616,7.66z"/>
			</g>
		</g>
	</g>
	<g>
		<g>
			<g>
				<path fill="#F7F7F7" d="M0,0v11.779l5.004-0.846v8.639c0,4.649,0.752,6.731,3.675,6.288c2.922-0.443,3.586-2.878,3.586-7.439
					V9.706l33.078-5.588v2.037h0.221c1.284-2.037,3.72-3.321,7.085-3.852c3.41-0.576,6.288,0.398,7.174,3.1H60V0H0z"/>
			</g>
		</g>
	</g>
	<path fill="#F7F7F7" d="M52.738,23.203c-2.568,0.398-5.313,0.177-7.085-0.931h-0.222v8.856H60V18.907h-0.177
		C58.583,21.431,55.794,22.716,52.738,23.203z"/>
</g>
</svg>
